<?xml version="1.0" encoding="utf-8"?>

<svg xmlns="http://www.w3.org/2000/svg" xmlns:xlink="http://www.w3.org/1999/xlink" 
  height="512" width="512" viewBox="0 0 512 512">

  <image href="https://s0.gifyu.com/images/hello_kitty_Hello_Kitty_Head_ClipArt_in_PNG_File.png" height="512" width="512" />

  <rect width="512" height="512" stroke="red" fill="rgba(255,255,255,0.95)" opacity="0.95" ></rect>

  <text x="2" y="12" font-size="12" text-anchor="start" fill="red">0</text>
  <path d="M256  64 H0 H512" stroke="lightgray" fill="white"></path>
  <text x="2" y="68" font-size="12" text-anchor="start" fill="red">64</text>
  <path d="M256 128 H0 H512" stroke="lightgray" fill="white"></path>
  <text x="2" y="132" font-size="12" text-anchor="start" fill="red">128</text>
  <path d="M256 192 H0 H512" stroke="lightgray" fill="white"></path>
  <text x="2" y="196" font-size="12" text-anchor="start" fill="red">192</text>
  <path d="M256 256 H0 H512" stroke="lightgray" fill="white"></path>
  <text x="2" y="260" font-size="12" text-anchor="start" fill="red">256</text>
  <path d="M256 320 H0 H512" stroke="lightgray" fill="white"></path>
  <text x="2" y="324" font-size="12" text-anchor="start" fill="red">320</text>
  <path d="M256 384 H0 H512" stroke="lightgray" fill="white"></path>
  <text x="2" y="388" font-size="12" text-anchor="start" fill="red">384</text>
  <path d="M256 448 H0 H512" stroke="lightgray" fill="white"></path>
  <text x="2" y="452" font-size="12" text-anchor="start" fill="red">448</text>
  <text x="2" y="510" font-size="12" text-anchor="start" fill="red">512</text>

  <path d="M64  0 V512" stroke="lightgray" fill="white"></path>
  <text x="58" y="12" font-size="12" text-anchor="start" fill="red">64</text>
  <path d="M128  0 V512" stroke="lightgray" fill="white"></path>
  <text x="118" y="12" font-size="12" text-anchor="start" fill="red">128</text>
  <path d="M195  0 V512" stroke="lightgray" fill="white"></path>
  <text x="186" y="12" font-size="12" text-anchor="start" fill="red">192</text>
  <path d="M256  0 V512" stroke="lightgray" fill="white"></path>
  <text x="246" y="12" font-size="12" text-anchor="start" fill="red">256</text>
  <path d="M320  0 V512" stroke="lightgray" fill="white"></path>
  <text x="310" y="12" font-size="12" text-anchor="start" fill="red">320</text>
  <path d="M384  0 V512" stroke="lightgray" fill="white"></path>
  <text x="374" y="12" font-size="12" text-anchor="start" fill="red">384</text>
  <path d="M448  0 V512" stroke="lightgray" fill="white"></path>
  <text x="438" y="12" font-size="12" text-anchor="start" fill="red">448</text>
  <text x="492" y="12" font-size="12" text-anchor="start" fill="red">512</text>

  <path d="M256 256 V270 V242 M256 256 H270 H242" stroke="black" fill="white"></path>

  <text x="254" y="250" font-size="16" text-anchor="middle" fill="red">(256, 256)</text>

  <!--<ellipse fill="#77DD47" stroke="#246614" stroke-width="5" cx="256" cy="270" rx="200" ry="150" opacity="0.2"/>-->
 
  <!--<path d="M456 260 A199 140, 0, 0, 0, 58 256" stroke-width="5" stroke="#F00" fill="none" opacity="0.3"/>-->
  <!--<path d="M448 220 A40 40 0, 0, 0, 395 155" stroke-width="5" stroke="#F00" fill="none" opacity="0.3"/>-->
  <!--<path d="M435 145 A40 40 0, 0, 0, 350 120" stroke-width="5" stroke="#F00" fill="none" opacity="0.3"/>-->
  <!--<path d="M350 135 A40 40 0, 0, 0, 270 115" stroke-width="5" stroke="#F00" fill="none" opacity="0.3"/>-->
  <!--<path d="M180 128 A40 40 0, 0, 0, 80 192" stroke-width="5" stroke="#F00" fill="none" opacity="0.3"/>-->
  <!--<path d="M58 256 A170 140, 10, 0, 0, 456 260" stroke-width="5" stroke="#F00" fill="none" opacity="0.3"/>-->

  <path d="M448 256 A199 140, 0, 0, 0, 440 225" stroke-width="5" stroke="#00f" fill="none" opacity="0.3"/>
  <path d="M440 226 A70 70 0, 0, 0, 458 170" stroke-width="5" stroke="#00f" fill="none" opacity="0.3"/>
  <path d="M458 170 A70 30 0, 0, 0, 435 150" stroke-width="5" stroke="#00f" fill="none" opacity="0.3"/>
  <path d="M435 153 A110 100 0, 0, 0, 418 95" stroke-width="5" stroke="#00f" fill="none" opacity="0.3"/>  
  <path d="M419 95 A110 100 0, 0, 0, 350 120" stroke-width="5" stroke="#00f" fill="none" opacity="0.3"/>  
  <path d="M350 120 A90 300 0, 0, 0, 272 120" stroke-width="5" stroke="#00f" fill="none" opacity="0.3"/>  
  <path d="M272 120 A90 30 0, 0, 0, 180 128" stroke-width="5" stroke="#00f" fill="none" opacity="0.3"/>  
  <path d="M180 128 A90 50 0, 0, 0,100 105" stroke-width="5" stroke="#00f" fill="none" opacity="0.3"/>  
  <path d="M100 105 A60 60 0, 0, 0,96 190" stroke-width="5" stroke="#00f" fill="none" opacity="0.3"/> 
  <path d="M96 190 A120 120 0, 0, 0,64 256" stroke-width="5" stroke="#00f" fill="none" opacity="0.3"/> 
  <path d="M64 256 A120 120 0, 0, 0,64 320" stroke-width="5" stroke="#00f" fill="none" opacity="0.3"/> 
  <path d="M64 320 A100 70 0, 0, 0,448 256" stroke-width="5" stroke="#00f" fill="none" opacity="0.3"/> 




<circle id="c1" cx="448" cy="256" r="1" stroke="red" fill="none">
    <animate attributeName="r" to="7" dur="2s" repeatCount="indefinite"/>
</circle>
<circle id="c2" cx="440" cy="225" r="1" stroke="red" fill="none">
    <animate attributeName="r" to="7" dur="2s" repeatCount="indefinite"/>
</circle>
<circle id="c3" cx="458" cy="170" r="1" stroke="red" fill="none">
    <animate attributeName="r" to="7" dur="2s" repeatCount="indefinite"/>
</circle>
<circle id="c4" cx="435" cy="150" r="1" stroke="red" fill="none">
    <animate attributeName="r" to="7" dur="2s" repeatCount="indefinite"/>
</circle>
<circle id="c5" cx="435" cy="150" r="1" stroke="red" fill="none">
    <animate attributeName="r" to="7" dur="2s" repeatCount="indefinite"/>
</circle>
<circle id="c6" cx="419" cy="95" r="1" stroke="red" fill="none">
    <animate attributeName="r" to="7" dur="2s" repeatCount="indefinite"/>
</circle>
<circle id="c7" cx="350" cy="120" r="1" stroke="red" fill="none">
    <animate attributeName="r" to="7" dur="2s" repeatCount="indefinite"/>
</circle>
<circle id="c8" cx="272" cy="120" r="1" stroke="red" fill="none">
    <animate attributeName="r" to="7" dur="2s" repeatCount="indefinite"/>
</circle>
<circle id="c9" cx="180" cy="128" r="1" stroke="red" fill="none">
    <animate attributeName="r" to="7" dur="2s" repeatCount="indefinite"/>
</circle>
<circle id="c10" cx="100" cy="105" r="1" stroke="red" fill="none">
    <animate attributeName="r" to="7" dur="2s" repeatCount="indefinite"/>
</circle>
<circle id="c11" cx="96" cy="190" r="1" stroke="red" fill="none">
    <animate attributeName="r" to="7" dur="2s" repeatCount="indefinite"/>
</circle>
<circle id="c12" cx="64" cy="256" r="1" stroke="red" fill="none">
    <animate attributeName="r" to="7" dur="2s" repeatCount="indefinite"/>
</circle>
<circle id="c12" cx="64" cy="320" r="1" stroke="red" fill="none">
    <animate attributeName="r" to="7" dur="2s" repeatCount="indefinite"/>
</circle>

<circle cx="0" cy="0" r="2" stroke="blue" fill="none">
    <animateMotion dur="10s" path="M448 256 A199 140, 0, 0, 0, 440 225
M440 226 A70 70 0, 0, 0, 458 170
M458 170 A70 30 0, 0, 0, 435 150
M435 153 A110 100 0, 0, 0, 418 95
M419 95 A110 100 0, 0, 0, 350 120
M350 120 A90 300 0, 0, 0, 272 120
M272 120 A90 30 0, 0, 0, 180 128
M180 128 A90 50 0, 0, 0,100 105
M100 105 A60 60 0, 0, 0,96 190
M96 190 A120 120 0, 0, 0,64 256
M64 256 A120 120 0, 0, 0,64 320
M64 320 A100 70 0, 0, 0,448 256
" repeatCount="indefinite" rotate="auto"/>
<animate attributeName="r" to="10" dur="10s" repeatCount="indefinite"/>
</circle>
</svg>
    