<?xml version="1.0" standalone="no"?>
<!DOCTYPE svg PUBLIC "-//W3C//DTD SVG 1.1//EN" "http://www.w3.org/Graphics/SVG/1.1/DTD/svg11.dtd" >
<svg xmlns="http://www.w3.org/2000/svg" xmlns:xlink="http://www.w3.org/1999/xlink" version="1.1" viewBox="-10 0 271 256">
<path fill="currentColor" d="M83,10 Q92,23,91,27 Q88,34,86,44 Q85,56,85,79 Q90,77,91,79 Q91,84,85,86 Q83,95,84,109 Q94,118,105,121 Q108,122,106,125 Q103,130,96,124 Q92,122,85,116 Q83,113,83,112 Q83,120,82,139 V187 Q81,204,87,214 Q88,218,85,220 Q81,222,79,219 Q65,199,61,180 Q60,177,63,180 Q67,188,73,196 L74,197 Q79,200,79,194 Q79,166,78,150 V114 Q59,145,28,159 Q20,163,27,157 Q63,136,78,100 Q77,99,78,94 Q79,90,79,88 Q75,90,70,92 Q53,99,46,102 Q30,110,14,106 Q10,105,15,104 Q27,106,79,82 Q78,62,80,40 Q80,37,81,35 Q82,21,80,12 Q78,10,79,9 Q80,9,83,10" />
<path fill="currentColor"
d="M149,68 Q145,93,151,97 Q152,102,150,102 Q145,103,145,99 Q137,83,141,79 L143,73 Q146,55,146,40 Q145,36,148,39 Q151,44,151,49 Q151,53,149,68"/>
<path fill="currentColor"
d="M148,19 Q150,19,157,17 Q162,15,164,14 Q172,10,177,15 Q179,18,183,21 Q186,24,188,25 Q192,30,186,32 Q181,32,180,36 Q176,81,170,105 Q169,108,167,109 Q166,109,166,106 Q166,96,165,91 Q155,95,151,93 Q148,92,151,90 Q155,90,158,88 Q162,84,166,86 Q167,88,168,88 T170,85 Q172,66,174,22 Q173,17,169,18 Q153,23,148,21 Q143,20,148,19"/>
<path fill="currentColor"
d="M153,61 Q154,61,158,59 Q159,59,160,58 Q163,56,167,57 L169,59 Q169,60,168,60 Q155,67,153,63 Q150,62,153,61"/>
<path fill="currentColor"
d="M184,138 Q185,138,188,139 H190 Q192,142,192,143 T189,144 Q185,144,183,147 Q155,177,143,185 Q137,189,142,184 Q159,169,178,147 Q181,144,180,141 T184,138"/>
<path fill="currentColor"
d="M126,127 Q119,131,109,127 Q105,126,110,125 H112 Q120,123,129,120 Q189,103,216,100 Q221,101,225,96 Q227,95,232,96 Q245,103,250,106 Q251,107,251,108 Q250,109,249,109 Q243,110,239,105 Q233,101,223,102 Q200,104,146,120 Q144,125,141,128 Q147,134,163,131 Q197,128,207,137 Q218,146,222,160 Q224,169,217,170 Q214,170,208,176 Q187,204,145,219 Q141,220,139,220 Q137,219,139,217 Q141,216,137,214 Q130,205,129,182 Q128,175,131,182 Q133,201,145,210 Q147,215,154,212 Q194,196,210,166 L211,165 Q218,153,213,148 Q200,128,157,135 Q158,141,155,143 Q150,146,144,152 Q141,154,145,153 T159,148 Q168,144,173,142 Q180,141,173,144 Q122,164,121,170 Q118,171,118,169 Q126,158,128,159 Q132,160,134,156 Q156,139,153,135 Q146,134,139,131 Q137,133,135,133 Q131,137,127,137 T126,135 Q134,130,143,121 Q139,122,132,125"/>

</svg>
