<?xml version="1.0" standalone="no"?>
<!DOCTYPE svg PUBLIC "-//W3C//DTD SVG 1.1//EN" "http://www.w3.org/Graphics/SVG/1.1/DTD/svg11.dtd" >
<svg xmlns="http://www.w3.org/2000/svg" xmlns:xlink="http://www.w3.org/1999/xlink" version="1.1" viewBox="-10 0 273 256">
<path fill="currentColor" d="M156,16 Q168,22,164,26Q161,29,157,43Q152,61,138,98Q136,101,137,102L141,101L185,79Q190,78,196,67Q196,62,201,64Q206,68,214,67Q216,68,216,70T214,72Q194,77,144,103Q138,106,129,116Q126,119,124,119Q123,118,124,114Q125,105,130,103Q137,104,155,33Q158,23,155,17Q153,15,156,16"/>
<path fill="currentColor" d="M103,18 Q107,21,111,23H114Q116,25,116,26T114,27Q95,28,80,37Q72,42,78,36Q80,34,79,34Q79,33,77,33L59,39Q48,44,32,40Q28,39,33,38Q45,39,57,34Q62,32,81,28Q84,27,88,26Q94,26,96,20Q97,16,103,18"/>
<path fill="currentColor" d="M72,51 Q74,54,80,56Q83,60,79,62Q74,61,67,70Q59,80,48,95Q45,99,44,101Q95,86,96,78Q93,77,92,75Q88,73,93,73Q113,75,121,83Q123,87,120,88Q113,90,109,86Q106,85,101,82L98,79Q98,83,93,86Q80,94,55,103Q36,108,33,114Q28,115,29,110Q30,107,31,103Q31,100,33,102Q34,104,39,102Q47,90,58,75Q61,70,65,65Q70,58,69,53Q68,52,69,51Q71,50,72,51"/>
<path fill="currentColor" d="M65,111 Q67,113,71,115Q73,116,74,116Q77,118,77,119T75,122Q71,126,72,137Q93,124,99,125Q102,128,99,130Q78,141,72,145Q72,150,71,161T71,176Q91,156,112,133Q119,127,113,135Q66,193,37,207Q34,209,33,208Q32,208,33,206V204Q34,203,36,202Q50,196,66,180Q63,178,64,168Q64,165,65,159Q65,152,66,148Q39,160,36,154Q33,154,33,153T36,151Q51,148,62,143Q66,141,66,136Q66,116,63,113Q58,110,65,111"/>
<path fill="currentColor" d="M162,109 Q164,111,170,110Q172,111,173,113Q173,114,171,115Q166,116,163,127Q159,138,147,159Q163,181,186,199Q190,204,205,203Q228,203,250,207Q253,208,253,209Q252,210,249,210Q231,207,204,208Q190,208,183,202Q157,179,146,162Q128,185,106,200Q101,204,105,199Q126,182,143,159Q133,145,130,143Q126,139,121,139Q118,139,121,137Q130,133,133,137Q137,146,145,156Q167,122,161,111Q158,107,162,109"/>
</svg>
